<svg xmlns="http://www.w3.org/2000/svg"><symbol id="github" viewBox="0 0 24 24"><path d="m12.009,1C5.921,1,1,6.042,1,12.279c0,4.986,3.153,9.206,7.528,10.7.547.112.747-.243.747-.541,0-.261-.018-1.158-.018-2.092-3.062.672-3.7-1.345-3.7-1.345-.492-1.307-1.221-1.643-1.221-1.643-1.002-.691.073-.691.073-.691,1.112.075,1.695,1.158,1.695,1.158.984,1.718,2.57,1.232,3.208.934.091-.728.383-1.232.693-1.512-2.443-.261-5.012-1.232-5.012-5.565,0-1.232.437-2.241,1.13-3.025-.109-.28-.492-1.438.11-2.988,0,0,.93-.299,3.026,1.158.897-.247,1.823-.372,2.752-.374.93,0,1.877.131,2.752.374,2.096-1.457,3.026-1.158,3.026-1.158.602,1.55.219,2.708.109,2.988.711.784,1.13,1.793,1.13,3.025,0,4.332-2.57,5.285-5.031,5.565.401.355.747,1.027.747,2.091,0,1.512-.018,2.726-.018,3.1,0,.299.201.654.747.542,4.374-1.494,7.528-5.714,7.528-10.7.018-6.237-4.921-11.279-10.991-11.279Z"/></symbol><symbol id="mastodon" viewBox="0 0 24 24"><path d="m22.915,5.871c-.323-2.364-2.419-4.227-4.903-4.588-.419-.061-2.007-.283-5.685-.283h-.027c-3.679,0-4.469.222-4.888.283-2.415.351-4.62,2.025-5.155,4.417-.257,1.178-.285,2.484-.237,3.682.068,1.718.081,3.433.24,5.144.11,1.136.301,2.264.573,3.374.509,2.05,2.567,3.756,4.585,4.452,2.16.726,4.482.846,6.708.348.245-.056.487-.121.726-.195.54-.169,1.174-.358,1.64-.69.006-.005.012-.011.015-.018.004-.007.006-.015.006-.022v-1.658c0-.007-.002-.014-.005-.021-.003-.007-.008-.012-.014-.017-.006-.005-.013-.008-.02-.009-.007-.002-.015-.002-.022,0-1.426.335-2.887.503-4.353.5-2.523,0-3.201-1.177-3.396-1.667-.156-.423-.255-.865-.295-1.314,0-.008.001-.015.004-.022.003-.007.008-.013.014-.018.006-.005.013-.008.02-.01.007-.002.015-.001.023,0,1.402.333,2.839.5,4.282.5.347,0,.693,0,1.04-.009,1.451-.04,2.979-.113,4.407-.387.036-.007.071-.013.102-.022,2.251-.425,4.393-1.759,4.611-5.137.008-.133.028-1.393.028-1.531.001-.469.154-3.327-.022-5.083Zm-3.465,8.428h-2.367v-5.7c0-1.2-.509-1.812-1.543-1.812-1.137,0-1.707.724-1.707,2.154v3.12h-2.353v-3.12c0-1.43-.571-2.154-1.708-2.154-1.028,0-1.542.612-1.543,1.812v5.7h-2.365v-5.873c0-1.2.312-2.153.935-2.86.643-.705,1.486-1.067,2.533-1.067,1.212,0,2.127.458,2.737,1.373l.589.972.59-.972c.61-.915,1.526-1.373,2.735-1.373,1.046,0,1.889.362,2.534,1.067.623.706.935,1.659.935,2.86l-.002,5.873Z" /></symbol></svg>